<?xml version="1.0" encoding="iso-8859-1"?>
<!-- Generator: Adobe Illustrator 30.1.0, SVG Export Plug-In . SVG Version: 9.03 Build 0)  -->
<svg version="1.1" id="Layer_1" xmlns="http://www.w3.org/2000/svg" xmlns:xlink="http://www.w3.org/1999/xlink" x="0px" y="0px"
	 viewBox="0 0 1024 768" enable-background="new 0 0 1024 768" xml:space="preserve">
<g>
	<path fill="#FFFFFF" d="M757.52,167.65v409.81c0,19.83-16.101,35.9-35.935,35.9H541.66
		c-10.982,65.524-67.943,115.673-136.57,115.673c-76.437,0-138.61-62.174-138.61-138.604c0-66.462,47.049-122.116,109.591-135.517
		V167.65c0-19.851,16.091-35.921,35.928-35.921h47.375V75.887c0-19.858,16.077-35.921,35.921-35.921h142.996
		c19.844,0,35.921,16.063,35.921,35.921v55.842h47.372C741.419,131.729,757.52,147.799,757.52,167.65z M296.76,588.929
		c0,59.859,48.499,108.361,108.337,108.361c59.845,0,108.358-48.501,108.358-108.361c0-59.831-48.513-108.326-108.358-108.326
		C345.258,480.603,296.76,529.098,296.76,588.929z M436.201,200.165v84.361v170.93c44.991,10.37,81.59,42.628,98.039,84.978h157.002
		V284.526v-84.361H436.201z"/>
	<path fill="#2A3E84" d="M534.24,540.434c-16.449-42.35-53.048-74.608-98.039-84.978v-170.93h255.041v255.908H534.24z"/>
	<rect x="436.201" y="200.165" fill="#9DB9E0" width="255.041" height="84.361"/>
	<path fill="#2A3E84" d="M405.096,697.29c-59.838,0-108.337-48.501-108.337-108.361c0-59.831,48.499-108.326,108.337-108.326
		c59.845,0,108.358,48.495,108.358,108.326C513.454,648.789,464.942,697.29,405.096,697.29z M449.901,588.818l48.171-41.155
		l-0.486,0.236l0.486-0.424l-78.581,36.908c-1.258,0.584-2.673-0.355-2.613-1.717l1.842-53.402h-0.014l0.014-0.209L312.681,635.012
		c-1.53,1.501,0.333,3.948,2.196,2.912l78.855-44.609c1.233-0.695,2.773,0.216,2.738,1.648l-0.903,36.06
		c-0.028,1.606,1.821,2.488,3.037,1.459l51.074-43.664H449.901z"/>
	<path fill="#FFFFFF" d="M506.784,612.617l-149.903-0.059l0.158-0.137l-0.01-0.01l39.063-36.458
		c1.005-0.921,0.669-2.585-0.634-3.062l-81.663-29.467l0.644,0.044l-0.511-0.177l63.163,4.961l0.158,0.158l66.989,5.24
		c1.588,0.132,2.271,2.063,1.116,3.179l-26.137,24.86c-1.037,0.988-0.592,2.72,0.771,3.101l87.303,24.215
		C509.34,609.589,508.927,612.637,506.784,612.617z"/>
</g>
<g>
</g>
<g>
</g>
<g>
</g>
<g>
</g>
<g>
</g>
<g>
</g>
<g>
</g>
<g>
</g>
<g>
</g>
<g>
</g>
<g>
</g>
<g>
</g>
<g>
</g>
<g>
</g>
<g>
</g>
</svg>
