<?xml version="1.0" encoding="iso-8859-1"?>
<!-- Generator: Adobe Illustrator 30.1.0, SVG Export Plug-In . SVG Version: 9.03 Build 0)  -->
<svg version="1.1" id="Layer_1" xmlns="http://www.w3.org/2000/svg" xmlns:xlink="http://www.w3.org/1999/xlink" x="0px" y="0px"
	 viewBox="0 0 1024 768" enable-background="new 0 0 1024 768" xml:space="preserve">
<g>
	<rect x="200.413" y="278.087" fill="none" width="12.59" height="42.958"/>
	<path fill="none" d="M392.533,418.629c0,74.05,60.021,134.079,134.074,134.079c74.042,0,134.09-60.029,134.09-134.079
		c0-74.047-60.048-134.074-134.09-134.074C452.554,284.555,392.533,344.582,392.533,418.629z M615.989,418.629
		c0,49.367-40.021,89.415-89.382,89.415c-49.383,0-89.405-40.049-89.405-89.415c0-49.383,40.022-89.372,89.405-89.372
		C575.968,329.257,615.989,369.246,615.989,418.629z"/>
	<path fill="#FFFFFF" d="M248.718,616.948h555.761c19.724,0,35.736-15.968,35.736-35.665V237.537
		c0-19.724-16.012-35.714-35.736-35.714h-16.331v-15.841c0-3.16-2.591-5.693-5.704-5.693h-88.585c-3.141,0-5.665,2.533-5.665,5.693
		v15.841h-67.106l-28.536-43.206c0-3.627-3.416-6.565-7.657-6.565h-38.921h-38.745h-38.894c-4.224,0-7.684,2.937-7.684,6.565
		l-28.492,43.206h-183.44c-19.703,0-35.715,15.99-35.715,35.714v23.902h-14.152c-8.328,0-15.066,6.766-15.066,15.091v46.078
		c0,8.3,6.738,15.066,15.066,15.066h14.152v243.609C213.003,600.98,229.015,616.948,248.718,616.948z M643.167,246.734h73.926
		h73.899v54.108h-73.899h-73.926V246.734z M526.607,284.555c74.042,0,134.09,60.026,134.09,134.074
		c0,74.05-60.048,134.079-134.09,134.079c-74.053,0-134.074-60.029-134.074-134.079
		C392.533,344.582,452.554,284.555,526.607,284.555z M200.413,321.045v-42.958h12.59v42.958H200.413z"/>
	<path fill="#FFFFFF" d="M437.202,418.629c0,49.367,40.022,89.415,89.405,89.415c49.361,0,89.382-40.049,89.382-89.415
		c0-49.383-40.021-89.372-89.382-89.372C477.223,329.257,437.202,369.246,437.202,418.629z"/>
	<rect x="643.167" y="246.734" fill="#2A3E84" width="73.926" height="54.108"/>
	<rect x="717.093" y="246.734" fill="#5F82C1" width="73.899" height="54.108"/>
</g>
<g>
</g>
<g>
</g>
<g>
</g>
<g>
</g>
<g>
</g>
<g>
</g>
<g>
</g>
<g>
</g>
<g>
</g>
<g>
</g>
<g>
</g>
<g>
</g>
<g>
</g>
<g>
</g>
<g>
</g>
</svg>
