<?xml version="1.0" encoding="iso-8859-1"?>
<!-- Generator: Adobe Illustrator 30.1.0, SVG Export Plug-In . SVG Version: 9.03 Build 0)  -->
<svg version="1.1" id="Layer_1" xmlns="http://www.w3.org/2000/svg" xmlns:xlink="http://www.w3.org/1999/xlink" x="0px" y="0px"
	 viewBox="0 0 1024 768" enable-background="new 0 0 1024 768" xml:space="preserve">
<g>
	<g>
		<path fill="#9DB9E0" d="M673.281,381.065c0,96.219-77.995,174.22-174.22,174.22l0,0c-96.225,0-174.22-78-174.22-174.22V271.977
			c0-96.22,77.995-174.225,174.22-174.225l0,0c96.225,0,174.22,78.005,174.22,174.225V381.065z"/>
		
			<path fill="#FFFFFF" stroke="#2A3E84" stroke-width="2" stroke-linecap="round" stroke-linejoin="round" stroke-miterlimit="10" d="
			M435.732,539.516c0,0,1.328,97.323-70.662,131.99c0,0,85.328,50.778,133.992,50.778c48.664,0,134.002-50.778,134.002-50.778
			c-72-34.667-70.672-131.99-70.672-131.99"/>
		
			<path fill="#FFFFFF" stroke="#2A3E84" stroke-width="2" stroke-linecap="round" stroke-linejoin="round" stroke-miterlimit="10" d="
			M650.599,280.862l13.123,70.662c0,0,19.997-27.998,34.662-9.329c14.666,18.664-31.996,78.664-33.324,91.997
			c-1.338,13.333-17.331,17.331-22.673,7.997c0,0-2.665,37.328-14.665,51.999c-12,14.665-79.997,83.995-128.661,83.995
			c-48.664,0-116.661-69.33-128.661-83.995c-12-14.671-14.666-51.999-14.666-51.999c-5.331,9.335-21.334,5.336-22.662-7.997
			c-1.338-13.333-48-73.333-33.335-91.997c14.666-18.669,34.663,9.329,34.663,9.329l6.158-12.005c0,0,15.656,41.719,40.943,47.27
			c-30.833-55.491-8.232-111.09-8.232-111.09s23.643,93.212,55.701,96.291c-19.731-42.541-22.08-122.364,2.349-95.52
			c32.855,36.092,129.529,111.565,191.531,106.009C592.356,341.781,650.599,280.862,650.599,280.862z"/>
	</g>
	<path fill="#FFFFFF" d="M253.001,482.742c8.365,0,15.147,6.781,15.147,15.147v60.953c0,16.766,13.64,30.406,30.406,30.406h60.953
		c8.366,0,15.147,6.781,15.147,15.147c0,8.365-6.781,15.147-15.147,15.147h-60.953c-33.469,0-60.699-27.229-60.699-60.699v-60.953
		C237.855,489.523,244.636,482.742,253.001,482.742z"/>
	<path fill="#FFFFFF" d="M253.001,182.515c8.365,0,15.147-6.781,15.147-15.147v-60.953c0-16.766,13.64-30.406,30.406-30.406h60.953
		c8.366,0,15.147-6.781,15.147-15.147s-6.781-15.147-15.147-15.147h-60.953c-33.469,0-60.699,27.229-60.699,60.699v60.953
		C237.855,175.734,244.636,182.515,253.001,182.515z"/>
	<path fill="#FFFFFF" d="M770.999,482.742c-8.365,0-15.147,6.781-15.147,15.147v60.953c0,16.766-13.64,30.406-30.406,30.406h-60.953
		c-8.366,0-15.147,6.781-15.147,15.147c0,8.365,6.781,15.147,15.147,15.147h60.953c33.469,0,60.699-27.229,60.699-60.699v-60.953
		C786.145,489.523,779.364,482.742,770.999,482.742z"/>
	<path fill="#FFFFFF" d="M770.999,182.515c-8.365,0-15.147-6.781-15.147-15.147v-60.953c0-16.766-13.64-30.406-30.406-30.406
		h-60.953c-8.366,0-15.147-6.781-15.147-15.147s6.781-15.147,15.147-15.147h60.953c33.469,0,60.699,27.229,60.699,60.699v60.953
		C786.145,175.734,779.364,182.515,770.999,182.515z"/>
</g>
<g>
</g>
<g>
</g>
<g>
</g>
<g>
</g>
<g>
</g>
<g>
</g>
<g>
</g>
<g>
</g>
<g>
</g>
<g>
</g>
<g>
</g>
<g>
</g>
<g>
</g>
<g>
</g>
<g>
</g>
</svg>
