<?xml version="1.0" encoding="iso-8859-1"?>
<!-- Generator: Adobe Illustrator 30.1.0, SVG Export Plug-In . SVG Version: 9.03 Build 0)  -->
<svg version="1.1" id="Layer_1" xmlns="http://www.w3.org/2000/svg" xmlns:xlink="http://www.w3.org/1999/xlink" x="0px" y="0px"
	 viewBox="0 0 1024 768" enable-background="new 0 0 1024 768" xml:space="preserve">
<g>
	<g>
		<g>
			
				<path fill="#FFFFFF" stroke="#2A3E84" stroke-width="2" stroke-linecap="round" stroke-linejoin="round" stroke-miterlimit="10" d="
				M800.629,624.404c0,26.947-21.845,48.791-48.791,48.791H272.163c-26.947,0-48.791-21.845-48.791-48.791V144.729
				c0-26.947,21.845-48.791,48.791-48.791h479.675c26.947,0,48.791,21.845,48.791,48.791V624.404z"/>
			<path fill="#FFFFFF" d="M800.629,321.839V144.206c0-26.947-21.845-48.791-48.791-48.791H272.163
				c-26.947,0-48.791,21.845-48.791,48.791v177.633C223.371,321.839,479.472,519.899,800.629,321.839z"/>
		</g>
		<g>
			<g>
				
					<line fill="none" stroke="#2A3E84" stroke-width="7" stroke-miterlimit="10" x1="223.371" y1="237.258" x2="420.333" y2="237.258"/>
				
					<ellipse transform="matrix(0.7071 -0.7071 0.7071 0.7071 -37.9937 382.7907)" fill="none" stroke="#2A3E84" stroke-width="7" stroke-miterlimit="10" cx="443.072" cy="237.258" rx="26.212" ry="26.212"/>
			</g>
			<g>
				<path fill="none" stroke="#2A3E84" stroke-width="7" stroke-miterlimit="10" d="M525.725,673.195V233.665
					c0-15.213,12.332-27.545,27.545-27.545H659.86"/>
				
					<ellipse transform="matrix(0.7071 -0.7071 0.7071 0.7071 53.6396 541.7364)" fill="none" stroke="#2A3E84" stroke-width="7" stroke-miterlimit="10" cx="680.753" cy="206.119" rx="26.212" ry="26.212"/>
			</g>
			<g>
				<path fill="none" stroke="#2A3E84" stroke-width="7" stroke-miterlimit="10" d="M800.629,318.697H664.65
					c-13.229,0-23.953,10.724-23.953,23.953v97.008"/>
				
					<ellipse transform="matrix(0.1443 -0.9895 0.9895 0.1443 92.4419 1028.1547)" fill="none" stroke="#2A3E84" stroke-width="7" stroke-miterlimit="10" cx="640.697" cy="460.628" rx="26.212" ry="26.212"/>
			</g>
			<g>
				<path fill="none" stroke="#2A3E84" stroke-width="7" stroke-miterlimit="10" d="M616.745,673.195V572.594
					c0-11.906,9.652-21.557,21.557-21.557h74.253c13.229,0,23.953-10.724,23.953-23.953V412.639"/>
				
					<ellipse transform="matrix(0.2078 -0.9782 0.9782 0.2078 199.2094 1031.6077)" fill="none" stroke="#2A3E84" stroke-width="7" stroke-miterlimit="10" cx="736.508" cy="392.814" rx="26.212" ry="26.212"/>
			</g>
			<g>
				<path fill="none" stroke="#2A3E84" stroke-width="7" stroke-miterlimit="10" d="M463.448,673.195V378.578
					c0-6.614-5.362-11.976-11.976-11.976H322.128"/>
				
					<ellipse transform="matrix(0.2283 -0.9736 0.9736 0.2283 -123.9794 576.788)" fill="none" stroke="#2A3E84" stroke-width="7" stroke-miterlimit="10" cx="301.856" cy="366.602" rx="26.212" ry="26.212"/>
			</g>
			<g>
				<path fill="none" stroke="#2A3E84" stroke-width="7" stroke-miterlimit="10" d="M223.371,467.203h161.033
					c9.26,0,16.767,7.507,16.767,16.767v112.577"/>
				
					<ellipse transform="matrix(0.2312 -0.9729 0.9729 0.2312 -291.5228 864.3694)" fill="none" stroke="#2A3E84" stroke-width="7" stroke-miterlimit="10" cx="401.171" cy="616.647" rx="26.212" ry="26.212"/>
			</g>
		</g>
	</g>
</g>
<g>
</g>
<g>
</g>
<g>
</g>
<g>
</g>
<g>
</g>
<g>
</g>
<g>
</g>
<g>
</g>
<g>
</g>
<g>
</g>
<g>
</g>
<g>
</g>
<g>
</g>
<g>
</g>
<g>
</g>
</svg>
