<?xml version="1.0" encoding="iso-8859-1"?>
<!-- Generator: Adobe Illustrator 30.1.0, SVG Export Plug-In . SVG Version: 9.03 Build 0)  -->
<svg version="1.1" id="Layer_1" xmlns="http://www.w3.org/2000/svg" xmlns:xlink="http://www.w3.org/1999/xlink" x="0px" y="0px"
	 viewBox="0 0 1024 768" enable-background="new 0 0 1024 768" xml:space="preserve">
<g>
	<path fill="#FFFFFF" d="M393.911,370.461l49.576,66.076c-25.738,8.186-48.682,20.407-68.673,34.227
		c-15.924,11.01-37.452,8.988-51.098-4.748c-7.837-7.89-11.638-18.075-11.638-28.199c0-12.737,6.02-25.367,17.628-33.174
		C348.296,392.14,369.741,380.176,393.911,370.461z"/>
	<path fill="#FFFFFF" d="M700.277,466.015c-13.638,13.736-35.166,15.758-51.09,4.748c-21.271-14.705-45.873-27.586-73.625-35.741
		l-65.644-87.482c0.689-0.015,1.386-0.015,2.082-0.015c76.109,0,137.482,26.987,182.287,57.117
		C715.119,418.658,717.966,448.205,700.277,466.015z"/>
	<path fill="#FFFFFF" d="M322.089,274.74l47.728,63.615c-31.069,13.63-57.64,30.395-79.448,46.948
		c-15.288,11.593-36.763,10.132-50.28-3.476c-7.444-7.497-11.101-17.212-11.101-26.889c0-11.199,4.892-22.353,14.433-29.979
		C263.434,308.966,289.778,290.838,322.089,274.74z"/>
	<path fill="#FFFFFF" d="M783.913,381.827c-13.517,13.607-34.999,15.069-50.28,3.476c-49.954-37.907-124.882-76.934-221.632-76.934
		c-10.419,0-20.581,0.454-30.493,1.31l-53.536-71.346c25.995-5.225,54.036-8.292,84.029-8.292
		c126.245,0,217.808,54.338,268.573,94.918C798.376,339.18,799.966,365.66,783.913,381.827z"/>
	<path fill="#FFFFFF" d="M251.326,180.435l46.259,61.653c-38.225,19.393-68.363,41.087-89.853,58.965
		c-14.811,12.328-36.551,11.389-50.128-2.279l-0.333-0.341c-15.091-15.198-14.213-39.982,1.939-54.066
		C179.495,226.679,210.436,202.864,251.326,180.435z"/>
	<path fill="#FFFFFF" d="M866.723,298.433l-0.333,0.341c-13.577,13.668-35.31,14.607-50.121,2.279
		c-52.514-43.684-156.662-110.169-304.268-110.169c-39.898,0-76.631,4.861-110.017,12.812l-49.576-66.068
		c46.486-14.296,99.832-23.762,159.593-23.762c179.349,0,300.914,85.264,352.791,130.5
		C880.936,258.452,881.822,283.236,866.723,298.433z"/>
	<path fill="#FFFFFF" d="M526.267,546.856c-4.657-0.606-9.412-0.916-14.266-0.916c-20.271,0-38.823,5.46-55.581,14.281
		c-15.372,8.102-34.287,4.899-46.531-7.436c-7.852-7.906-11.601-18.03-11.601-28.07c0-13.948,7.247-27.737,20.824-35.173
		c15.114-8.277,31.675-15.069,49.606-19.385L526.267,546.856z"/>
	<circle fill="#FFFFFF" cx="511.999" cy="628.832" r="44.382"/>
	
		<rect x="425.118" y="51.6" transform="matrix(0.7999 -0.6002 0.6002 0.7999 -127.2745 346.3379)" fill="#FFFFFF" width="61.111" height="624.817"/>
</g>
<g>
</g>
<g>
</g>
<g>
</g>
<g>
</g>
<g>
</g>
<g>
</g>
<g>
</g>
<g>
</g>
<g>
</g>
<g>
</g>
<g>
</g>
<g>
</g>
<g>
</g>
<g>
</g>
<g>
</g>
</svg>
