<?xml version="1.0" encoding="iso-8859-1"?>
<!-- Generator: Adobe Illustrator 30.1.0, SVG Export Plug-In . SVG Version: 9.03 Build 0)  -->
<svg version="1.1" id="Layer_1" xmlns="http://www.w3.org/2000/svg" xmlns:xlink="http://www.w3.org/1999/xlink" x="0px" y="0px"
	 viewBox="0 0 1024 768" enable-background="new 0 0 1024 768" xml:space="preserve">
<g>
	<path fill="#FFFFFF" d="M191.602,291.858v185.285c0,18.731,15.34,33.908,34.273,33.908h97.309V257.949h-97.309
		C206.942,257.949,191.602,273.127,191.602,291.858z"/>
	<path fill="#FFFFFF" d="M502.956,118.154l-158.25,139.792V384.5v126.553l158.25,139.792c24.658,21.782,63.748,4.466,63.748-28.239
		V146.393C566.704,113.689,527.613,96.372,502.956,118.154z"/>
	<path fill="#FFFFFF" d="M588.228,312.482v144.036c35.02-5.68,61.76-35.751,61.76-72.018S623.247,318.162,588.228,312.482z"/>
	<path fill="#FFFFFF" d="M685.659,303.408c-5.186-6.982-15.112-8.482-22.168-3.35c-7.057,5.131-8.573,14.951-3.386,21.932
		c13.529,18.211,20.679,39.827,20.679,62.51s-7.151,44.299-20.679,62.51c-5.187,6.981-3.67,16.801,3.386,21.932
		c2.829,2.057,6.117,3.048,9.378,3.048c4.873,0,9.683-2.216,12.79-6.398c17.558-23.635,26.839-51.677,26.839-81.092
		S703.217,327.044,685.659,303.408z"/>
	<path fill="#FFFFFF" d="M734.021,265.493c-5.266-6.922-15.207-8.311-22.205-3.101c-6.997,5.21-8.401,15.046-3.134,21.969
		c22.092,29.043,33.77,63.67,33.77,100.139s-11.677,71.097-33.77,100.139c-5.267,6.923-3.863,16.759,3.134,21.969
		c2.857,2.127,6.203,3.155,9.523,3.155c4.812,0,9.566-2.159,12.682-6.255c26.263-34.525,40.145-75.677,40.145-119.007
		S760.284,300.018,734.021,265.493z"/>
	<path fill="#FFFFFF" d="M818.454,301.444c-8.946-25.784-21.977-49.899-38.732-71.675c-5.305-6.894-15.254-8.229-22.222-2.981
		c-6.968,5.248-8.317,15.091-3.013,21.986c14.698,19.103,26.127,40.251,33.971,62.857c8.113,23.382,12.226,47.898,12.226,72.868
		s-4.113,49.486-12.226,72.868c-7.844,22.606-19.273,43.754-33.971,62.857c-5.304,6.894-3.956,16.737,3.013,21.986
		c2.87,2.161,6.244,3.206,9.593,3.206c4.782,0,9.51-2.132,12.629-6.187c16.755-21.776,29.786-45.891,38.732-71.675
		c9.253-26.668,13.944-54.611,13.944-83.056S827.707,328.112,818.454,301.444z"/>
</g>
<g>
</g>
<g>
</g>
<g>
</g>
<g>
</g>
<g>
</g>
<g>
</g>
<g>
</g>
<g>
</g>
<g>
</g>
<g>
</g>
<g>
</g>
<g>
</g>
<g>
</g>
<g>
</g>
<g>
</g>
</svg>
