<?xml version="1.0" encoding="iso-8859-1"?>
<!-- Generator: Adobe Illustrator 30.1.0, SVG Export Plug-In . SVG Version: 9.03 Build 0)  -->
<svg version="1.1" id="Layer_1" xmlns="http://www.w3.org/2000/svg" xmlns:xlink="http://www.w3.org/1999/xlink" x="0px" y="0px"
	 viewBox="0 0 1024 768" enable-background="new 0 0 1024 768" xml:space="preserve">
<g>
	<path fill="#FFFFFF" d="M713.474,679.356c0,29.801-24.159,53.959-53.961,53.959H364.485c-29.801,0-53.959-24.158-53.959-53.959
		V89.644c0-29.801,24.158-53.959,53.959-53.959h295.027c29.801,0,53.961,24.158,53.961,53.959V679.356z"/>
	<path fill="#9DB9E0" d="M678.976,582.049c0,13.629-11.049,24.678-24.677,24.678H369.702c-13.629,0-24.678-11.048-24.678-24.678
		V144.888c0-13.629,11.049-24.678,24.678-24.678l284.597-0.001c13.629,0,24.677,11.049,24.677,24.678V582.049z"/>
	<path fill="#2A3E84" d="M543.891,671.585c0-17.613-14.278-31.891-31.891-31.892c-17.614,0-31.89,14.278-31.89,31.891
		c0,17.614,14.276,31.892,31.89,31.893C529.613,703.477,543.891,689.198,543.891,671.585z"/>
	<g>
		<path fill="#FFFFFF" d="M579.374,84.608c0,4.311-3.494,7.805-7.805,7.805l-90.02,0c-4.311,0-7.806-3.494-7.806-7.806V80.3
			c0-4.311,3.495-7.806,7.806-7.806h90.02c4.311,0,7.805,3.495,7.805,7.806V84.608z"/>
		<path fill="#FFFFFF" d="M462.878,82.454c0-5.041-4.086-9.127-9.127-9.127c-5.041,0-9.126,4.086-9.126,9.127
			c0,5.041,4.086,9.127,9.126,9.127C458.792,91.581,462.878,87.495,462.878,82.454z"/>
	</g>
	<g>
		<g>
			<path fill-rule="evenodd" clip-rule="evenodd" fill="#2A3E84" d="M345.023,140.353c6.802,8.496,13.601,16.997,20.558,25.269
				c9.466,11.257,21.958,14.683,33.119,22.211c10.619,7.166,18.742-20.193,24.534-31.35c4.603-8.862,9.275-17.66,13.858-26.54
				c6.559-12.708,11.069-8.929,22.122-8.929c-13.44,25.97-26.721,52.088-40.478,77.765c8.978,8.32,20.924,13.076,30.933,18.806
				c7.796,11.71,15.681,23.314,23.583,34.893c14.789,21.665,30.664,42.309,45.155,64.22c12.119-25.18,15.22-65.67,21.839-93.932
				c4.202-17.939,9.687-32.343,5.275-50.417c-3.924-16.023-9.63-34.609-11.456-51.335c11.329,0,13.89-4.688,17.503,11.366
				c2.573,11.429,5.031,22.906,7.679,34.306c3.386,14.581,2.272,11.807,11.095,9.222c7.681-2.253,15.742-2.788,23.296-5.593
				c9.162-3.398,19.576-6.193,29.023-8.64c4.947-1.284,9.824-2.847,14.887-3.552c11.93-1.661,2.18-25.335,1.152-37.11
				c10.573,0,14.071-5.08,16.089,10.302c1.736,13.246,4.171,26.302,6.06,39.508c-10.708,7.219-25.579,6.9-37.043,10.165
				c-10.401,2.955-21.088,7.634-31.696,9.657c-6.986,1.337-25.617,1.98-30.7,8.223c-6.875,8.449-9.474,37.709-11.745,49.39
				c-3.163,16.279,22.65,44.274,30.543,57.087c8.893,14.432,41.401-25.002,51.79-34.449c15.546-14.131,46.98-41.714,46.98-41.714
				l-0.001,23.181c0,0-5.91,5.224-8.861,7.845c-14.923,13.258-29.775,26.658-44.607,40.095
				c-20.227,18.326-41.628,35.208-60.894,55.53c16.386,24.036,48.08,43.384,69.572,59.196c10.725,7.893,21.146,17.067,31.501,25.833
				c6.68,5.653,13.306,11.423,13.306,11.423s-0.017,8.018-0.017,22.513c-30.2-24.855-47.259-38.638-76.938-64.071
				c-6.159-5.268-12.606-9.905-18.748-15.211c-10.431-9.012-15.781,7.015-23.385,17.949c-5.613,8.07-11.129,16.261-16.747,24.326
				c-7.307,10.486-5.625,18.872-7.185,32.404c-2.842,24.689-1.525,34.358,9.142,54.025c10.364,19.109,21.291,37.708,31.771,56.724
				c7.396,13.423,6.193,21.219,19.16,14.104c11.778-6.462,23.388-13.444,35.065-20.221c20.416-11.851,47.866-27.293,47.866-27.293
				l-0.878,21.513c0,0-23.417,13.34-34.149,19.548c-10.753,6.219-21.517,12.405-32.364,18.324c-12.729,0-25.46,0-38.189,0
				c-13.838-25.552-28.504-50.287-42.47-75.712c-3.724-6.779-13.18-17.84-11.506-27.328c2.295-13.011,4.191-33.09,2.805-46.392
				c-14.857-8.854-33.062-13.304-48.835-18.866c-13.66-4.816-15.751-4.22-28.307,5.356c-9.625,7.34-19.205,14.79-28.919,21.921
				c-11.78,8.647-4.391,11.792,1.807,23.101c6.265,11.426,12.592,22.882,19.096,34.055c16.226,27.88,31.963,56.308,48.497,83.863
				c-6.108,0-12.22,0-18.329,0c-5.625-9.538-11.181-19.147-16.703-28.791c-11.059-19.308-21.985-38.749-33.066-58.035
				c-5.533-9.629-11.101-19.221-16.746-28.735c-8.71-14.682-11.41-5.014-22.095,3.216c-11.175,8.608-33.602,25.642-33.602,25.642
				l0-22.163c0,0,16.264-12.526,24.39-18.812c18.732-14.495,37.679-28.487,56.578-42.592c26.746-19.979,53.759-41.241,78.285-66.583
				c-7.397-10.847-27.925-17.138-38.188-22.364c-14.873-7.576-29.726-15.26-44.681-22.567
				c-13.467-6.582-28.058-19.169-41.768-12.477c-11.587,5.655-34.617,17.471-34.617,17.471l-0.001-20.936
				c0,0,24.188-11.885,35.526-17.91c-1.112-19.185-5.346-39.596-8.401-58.453c-2.377-14.65-2.957-36.406-11.456-46.76
				c-5.274-6.426-10.461-12.977-15.667-19.5 M381.693,201.321c3.774,20.29,8.024,42.125,9.734,62.779
				c1.235,14.922,2.001,26.574,12.953,31.96c11.486,5.647,27.422,21.375,36.091,7.684c6.585-10.397,12.443-21.402,19.448-31.31
				c6.843-9.682-8.833-23.666-13.374-30.593C438.748,229.951,382.511,207.5,381.693,201.321"/>
		</g>
	</g>
</g>
<g>
</g>
<g>
</g>
<g>
</g>
<g>
</g>
<g>
</g>
<g>
</g>
<g>
</g>
<g>
</g>
<g>
</g>
<g>
</g>
<g>
</g>
<g>
</g>
<g>
</g>
<g>
</g>
<g>
</g>
</svg>
