<?xml version="1.0" encoding="iso-8859-1"?>
<!-- Generator: Adobe Illustrator 30.1.0, SVG Export Plug-In . SVG Version: 9.03 Build 0)  -->
<svg version="1.1" id="Layer_1" xmlns="http://www.w3.org/2000/svg" xmlns:xlink="http://www.w3.org/1999/xlink" x="0px" y="0px"
	 viewBox="0 0 1024 768" enable-background="new 0 0 1024 768" xml:space="preserve">
<g>
	<path fill="#FFFFFF" d="M809.368,408.902c-8.533,0-15.45-6.918-15.45-15.45v-50.338c0-38.065-7.452-74.985-22.148-109.73
		c-14.198-33.569-34.528-63.72-60.423-89.616c-25.895-25.895-56.046-46.225-89.616-60.423C586.985,68.647,550.065,61.196,512,61.196
		s-74.985,7.452-109.73,22.148c-33.57,14.198-63.72,34.528-89.616,60.423c-25.896,25.896-46.225,56.048-60.424,89.616
		c-14.696,34.747-22.148,71.665-22.148,109.73c0,8.532-6.917,15.45-15.45,15.45c-8.532,0-15.45-6.917-15.45-15.45
		c0-42.223,8.273-83.192,24.589-121.768c15.757-37.252,38.31-70.705,67.033-99.428s62.176-51.276,99.428-67.033
		c38.577-16.316,79.546-24.59,121.769-24.59s83.192,8.273,121.768,24.589c37.253,15.756,70.705,38.31,99.428,67.033
		c28.724,28.724,51.276,62.176,67.033,99.428c16.316,38.576,24.589,79.545,24.589,121.768v50.338
		C824.819,401.984,817.901,408.902,809.368,408.902z"/>
	<path fill="#FFFFFF" d="M801.949,517.159c-2.861-1.566-70.045-39.894-70.045-174.045c0-58.739-22.873-113.961-64.408-155.494
		c-41.534-41.535-96.757-64.408-155.494-64.408s-113.961,22.874-155.494,64.408c-41.535,41.534-64.408,96.757-64.408,155.494
		c0,29.816-13.111,54.274-37.915,70.732c-17.64,11.704-34.869,15.093-36.775,15.441l-5.548-30.398l-0.07,0.014
		c0.133-0.025,13.381-2.646,26.072-11.317c15.704-10.73,23.338-25.276,23.338-44.473c0-33.851,6.633-66.698,19.715-97.628
		c12.632-29.867,30.715-56.688,53.743-79.715c23.028-23.028,49.848-41.11,79.715-53.743c30.931-13.082,63.777-19.715,97.628-19.715
		c33.851,0,66.699,6.633,97.628,19.715c29.867,12.633,56.688,30.715,79.715,53.743s41.11,49.848,53.743,79.715
		c13.082,30.931,19.715,63.777,19.715,97.628c0,33.216,4.742,80.543,27.33,117.386c13.265,21.636,26.679,29.567,26.813,29.644
		l-0.158-0.088L801.949,517.159z"/>
	<path fill="#FFFFFF" d="M317.672,653.34c-6.464,0-12.489-4.089-14.651-10.557c-2.705-8.093,1.664-16.845,9.756-19.55
		c0.748-0.25,76.09-25.755,150.169-73.88c42.9-27.87,76.956-57.74,101.224-88.781c29.456-37.679,44.392-77.197,44.392-117.459
		c0-53.243-43.316-96.56-96.56-96.56s-96.56,43.316-96.56,96.56c0,33.306-8.54,64.632-25.383,93.106
		c-13.302,22.488-31.747,43.148-54.822,61.406c-38.807,30.705-77.315,44.059-78.935,44.612c-8.077,2.756-16.857-1.552-19.615-9.628
		c-2.756-8.069,1.545-16.842,9.607-19.608l0,0c0.354-0.122,35.789-12.515,70.473-40.168c19.909-15.873,35.705-33.631,46.95-52.779
		c13.818-23.528,20.824-49.416,20.824-76.941c0-70.281,57.178-127.46,127.46-127.46s127.46,57.179,127.46,127.46
		c0,47.422-17.211,93.432-51.153,136.752c-26.465,33.776-63.158,65.99-109.062,95.746c-77.34,50.135-153.471,75.859-156.674,76.929
		C320.947,653.082,319.296,653.34,317.672,653.34z"/>
	<path fill="#FFFFFF" d="M281.149,600.863c-6.219,0.001-12.081-3.782-14.434-9.938c-3.046-7.97,0.945-16.902,8.916-19.948
		c0.689-0.264,70.075-27.005,138.323-69.51c60.645-37.77,132.935-95.904,132.935-158.354c0-19.238-15.651-34.889-34.888-34.889
		c-19.237,0-34.888,15.651-34.888,34.889c0,8.532-6.918,15.45-15.45,15.45s-15.45-6.917-15.45-15.45
		c0-36.276,29.512-65.788,65.788-65.788c36.276,0,65.788,29.512,65.788,65.788c0,34.711-16.132,70.077-47.948,105.12
		c-24.285,26.747-57.909,53.563-99.939,79.704c-70.744,43.999-140.313,70.785-143.239,71.905
		C284.849,600.535,282.983,600.863,281.149,600.863z"/>
	<path fill="#FFFFFF" d="M410.808,697.371c-6.069,0-11.828-3.6-14.287-9.558c-3.256-7.887,0.498-16.92,8.385-20.177
		c37.862-15.631,73.687-36.419,106.482-61.784s61.92-54.815,86.567-87.533c3.203-4.251,8.366-6.555,13.672-6.096
		c5.303,0.459,9.997,3.616,12.421,8.355c21.139,41.312,55.134,76.451,95.724,98.944c7.463,4.136,10.161,13.54,6.026,21.002
		c-4.136,7.465-13.541,10.161-21.002,6.026c-39.036-21.633-72.682-53.61-96.576-91.425c-23.012,27.691-49.148,52.91-77.927,75.169
		c-34.972,27.048-73.19,49.222-113.596,65.904C414.769,696.994,412.772,697.371,410.808,697.371z"/>
	<path fill="#FFFFFF" d="M775.566,588.516c-1.46,0-2.944-0.209-4.414-0.647c-2.828-0.842-28.347-9.248-53.187-44.722
		c-14.075-20.098-25.228-45.11-33.152-74.34c-9.676-35.691-14.581-77.982-14.581-125.695c0-42.266-16.459-82.001-46.345-111.887
		S554.266,184.881,512,184.881c-42.266,0-82.001,16.459-111.887,46.345c-29.886,29.886-46.345,69.621-46.345,111.887
		c0,41.665-19.85,79.651-57.405,109.851c-27.473,22.094-54.83,32.304-55.982,32.728c-8.008,2.948-16.888-1.153-19.836-9.161
		c-2.946-8.002,1.147-16.875,9.142-19.831c0.567-0.213,24.559-9.334,47.964-28.345c30.004-24.372,45.216-53.052,45.216-85.244
		c0-50.519,19.674-98.014,55.395-133.736c35.724-35.72,83.218-55.394,133.737-55.394c50.519,0,98.014,19.673,133.736,55.395
		s55.395,83.217,55.395,133.736c0,100.938,22.918,154.854,42.145,182.311c18.55,26.488,36.518,32.778,36.691,32.83
		c8.178,2.434,12.835,11.037,10.4,19.215C788.371,584.177,782.224,588.515,775.566,588.516z"/>
	<path fill="#FFFFFF" d="M486.958,729.132L486.958,729.132c-4.709-8.281-1.294-18.812,7.373-22.766
		c11.838-5.401,27.303-12.718,36.116-17.938c14.308-8.477,35.172-23.932,53.316-49.425c2.779-3.904,7.211-6.298,11.999-6.48
		c4.776-0.193,9.39,1.867,12.458,5.548c0.138,0.165,16.095,18.981,35.963,27.619c7.825,3.403,11.41,12.503,8.009,20.329
		c-3.403,7.825-12.505,11.411-20.329,8.009c-13.746-5.976-25.666-15.111-34.116-22.711c-28.551,33.663-69.026,55.087-89.998,64.564
		C500.11,739.332,491.102,736.419,486.958,729.132z"/>
	<path fill="#FFFFFF" d="M450.838,416.231"/>
</g>
</svg>
